#!OML:ASF X:\für Bonn\!DataBase\2005_08_11_Bastian_Final\c3d\Bastian.ASF
:FULLY-SPECIFIED
:DEGREES
106
root 0.908414 17.2902 0.482129 165.746 -4.87721 -174.025
lowerback 9.76841 -3.78606 9.43241
upperback 7.12394 -5.71398 4.28817
thorax 1.6854 -3.18927 -0.31535
lowerneck -7.04242 -5.8298 -7.80235
upperneck -3.55134 -6.96292 4.34491
head 0.540831 -3.26138 2.52224
rclavicle 6.16232e-015 -4.29375e-014
rhumerus -37.2225 21.0244 -93.1752
rradius 48.7792
rwrist -20.9531
rhand -37.6345 20.1432
rfingers 7.12502
rthumb -10.6868 -9.565
lclavicle 6.16232e-015 -4.29375e-014
lhumerus 3.32604 -49.3053 86.4914
lradius 54.4599
lwrist -17.179
lhand -42.9284 -5.19441
lfingers 7.12502
lthumb -15.7894 24.1816
rfemur -7.22958 2.08875 26.1809
rtibia 52.7123
rfoot -10.706 -14.9678
rtoes -13.1797
lfemur 4.09019 -2.46239 -13.8008
ltibia 30.9438
lfoot -15.6186 1.89099
ltoes 8.0775
107
root 0.959894 17.2717 0.467957 166.001 -4.97746 -174.164
lowerback 9.46408 -3.71862 9.27935
upperback 6.89511 -5.57332 4.1807
thorax 1.60945 -3.09542 -0.370815
lowerneck -7.34471 -5.80412 -7.70907
upperneck -3.06339 -6.9316 4.22243
head 0.738317 -3.25761 2.45231
rclavicle -7.85199e-015 -6.04305e-014
rhumerus -36.3702 21.268 -93.3572
rradius 49.2253
rwrist -20.7546
rhand -37.6968 20.2018
rfingers 7.12502
rthumb -10.7469 -9.50332
lclavicle -7.85199e-015 -6.04305e-014
lhumerus 2.04306 -49.9324 87.1771
lradius 51.3554
lwrist -18.4649
lhand -42.5074 -5.19132
lfingers 7.12502
lthumb -15.3839 24.2163
rfemur -6.19712 1.24994 26.0665
rtibia 50.8837
rfoot -12.5421 -14.6016
rtoes -11.1742
lfemur 3.46223 -2.36968 -13.6997
ltibia 31.6308
lfoot -15.8103 1.63292
ltoes 7.61904
108
root 1.0147 17.2566 0.454108 166.2 -5.10659 -174.298
lowerback 9.23262 -3.67494 9.04682
upperback 6.68039 -5.47096 4.09266
thorax 1.51508 -3.02807 -0.353474
lowerneck -7.64638 -5.75246 -7.57534
upperneck -2.58324 -6.8678 4.06279
head 0.928443 -3.23803 2.36534
rclavicle 2.50469e-014 -1.74931e-014
rhumerus -35.4887 21.6633 -93.5647
rradius 49.7191
rwrist -20.5654
rhand -37.7071 20.2152
rfingers 7.12502
rthumb -10.7567 -9.48935
lclavicle 2.50469e-014 -1.74931e-014
lhumerus 0.574391 -50.2808 88.0629
lradius 48.2376
lwrist -19.9315
lhand -42.2759 -5.4421
lfingers 7.12502
lthumb -15.1609 23.9825
rfemur -5.24785 0.308313 25.9419
rtibia 49.2622
rfoot -14.3243 -14.2158
rtoes -8.56132
lfemur 2.88141 -2.31337 -13.5916
ltibia 32.3312
lfoot -15.9688 1.38266
ltoes 6.70372
109
root 1.07069 17.242 0.440862 166.368 -5.20804 -174.417
lowerback 9.01424 -3.62376 8.80689
upperback 6.51576 -5.37382 4.00988
thorax 1.46908 -2.9659 -0.327334
lowerneck -7.9971 -5.69596 -7.3706
upperneck -2.13989 -6.79513 3.85671
head 1.11028 -3.21254 2.25095
rclavicle -3.77691e-015 2.70347e-014
rhumerus -34.522 22.1639 -93.7477
rradius 50.3324
rwrist -20.4553
rhand -37.6582 20.1498
rfingers 7.12502
rthumb -10.7096 -9.55726
lclavicle -3.77691e-015 2.70347e-014
lhumerus -0.903526 -50.3572 89.043
lradius 45.0579
lwrist -21.582
lhand -42.2182 -5.71636
lfingers 7.12502
lthumb -15.1054 23.7124
rfemur -4.41527 -0.672338 25.8213
rtibia 47.8386
rfoot -15.8144 -13.7462
rtoes -6.91724
lfemur 2.33783 -2.30779 -13.4733
ltibia 33.0503
lfoot -16.2187 1.19465
ltoes 5.78647
110
root 1.12576 17.2274 0.430044 166.465 -5.30812 -174.551
lowerback 8.90946 -3.5777 8.52277
upperback 6.35843 -5.27988 3.93724
thorax 1.3733 -2.91131 -0.257139
lowerneck -8.30065 -5.62468 -7.15697
upperneck -1.71214 -6.70783 3.64019
head 1.27807 -3.18061 2.1346
rclavicle 1.2921e-015 1.43125e-014
rhumerus -33.5839 22.7186 -93.9072
rradius 51.0781
rwrist -20.4372
rhand -37.5661 20.0999
rfingers 7.12502
rthumb -10.6208 -9.61167
lclavicle 1.2921e-015 1.43125e-014
lhumerus -2.55685 -50.034 90.2509
lradius 41.9508
lwrist -23.4213
lhand -42.2226 -5.84466
lfingers 7.12502
lthumb -15.1096 23.5838
rfemur -3.65469 -1.72524 25.6438
rtibia 46.5791
rfoot -17.0335 -13.2228
rtoes -6.42895
lfemur 1.85894 -2.38937 -13.4009
ltibia 33.8069
lfoot -16.532 1.06474
ltoes 4.53415
111
root 1.18003 17.2156 0.421487 166.541 -5.35738 -174.702
lowerback 8.83377 -3.50716 8.27479
upperback 6.24469 -5.15586 3.82598
thorax 1.30411 -2.83998 -0.248754
lowerneck -8.70356 -5.56411 -6.8612
upperneck -1.2399 -6.63497 3.39917
head 1.47509 -3.15593 1.99329
rclavicle -5.75482e-014 9.85972e-014
rhumerus -32.604 23.2514 -94.0659
rradius 51.9568
rwrist -20.517
rhand -37.4392 20.0937
rfingers 7.12502
rthumb -10.4984 -9.62417
lclavicle -5.75482e-014 9.85972e-014
lhumerus -4.1493 -49.3607 91.4358
lradius 38.9127
lwrist -25.4044
lhand -42.1898 -5.62069
lfingers 7.12502
lthumb -15.078 23.8102
rfemur -3.03539 -2.78028 25.4331
rtibia 45.4812
rfoot -18.0431 -12.6351
rtoes -6.2916
lfemur 1.37595 -2.49201 -13.3468
ltibia 34.6244
lfoot -16.8387 0.987853
ltoes 3.11478
112
root 1.23355 17.2036 0.416004 166.561 -5.32174 -174.841
lowerback 8.84648 -3.40555 8.08445
upperback 6.14861 -4.98504 3.70924
thorax 1.20447 -2.74699 -0.275418
lowerneck -9.02289 -5.52154 -6.62989
upperneck -0.83254 -6.58665 3.20803
head 1.64385 -3.14199 1.88182
rclavicle -4.96962e-016 -3.73715e-014
rhumerus -31.6461 23.7735 -94.1884
rradius 52.9678
rwrist -20.7469
rhand -37.2662 20.28
rfingers 7.12502
rthumb -10.3314 -9.44619
lclavicle -4.96962e-016 -3.73715e-014
lhumerus -5.64291 -48.5992 92.5273
lradius 36.0074
lwrist -27.1192
lhand -42.058 -4.94242
lfingers 7.12502
lthumb -14.951 24.4979
rfemur -2.48801 -3.79409 25.2286
rtibia 44.5232
rfoot -18.8559 -11.9858
rtoes -6.39662
lfemur 0.909412 -2.65526 -13.2968
ltibia 35.5319
lfoot -17.051 1.03011
ltoes 1.62606
